 http://img6.imageshack.us/img6/3123/dangerousminds1995.jpg

Country.......: USA
Genre.........: Thriller, Crime, Drama
Date release..: 11.08.1995 [World]
Director......: John N. Smith
Writers.......: LouAnne Johnson, Ronald Bass
Duration......: 94 min.
More..........: http://www.imdb.com/title/tt0112792
Trailer.......:

Pilot :
An ex-marine teacher struggles to connect with her students in an inner city schools. 

Cats :
Michelle Pfeiffer   	 ...  	Louanne Johnson
George Dzundza 	... 	Hal Griffith
Courtney B. Vance 	... 	George Grandey
Robin Bartlett 	... 	Carla Nichols
Beatrice Winde 	... 	Mary Benton
John Neville 	... 	Waiter
Lorraine Toussaint 	... 	Irene Roberts
Renoly Santiago 	... 	Raul Sanchero
Wade Dominguez 	... 	Emilio Ramirez
Bruklin Harris 	... 	Callie Roberts
Marcello Thedford 	... 	Cornelius Bates
Roberto Alvarez 	... 	Gusmaro Rivera
Richard Grant 	... 	Durrell Benton
Marisela Gonzales 	... 	Angela
Toni Nichelle Buzhardt 	... 	Nikki

Data Technical :
!!! SAMPLE !!!
Audio.....: Lector Polish
Subtitles.: None
Format                           : AVI
Format/Info                      : Audio Video Interleave
File size                        : 701 MiB
Duration                         : 1h 34mn
Overall bit rate                 : 1 038 Kbps
Writing application              : VirtualDubMod 1.5.10.2 (build 2540/release)
Writing library                  : VirtualDubMod build 2540/release
Video
ID                               : 0
Format                           : MPEG-4 Visual
Format settings, BVOP            : Yes
Format settings, QPel            : No
Format settings, GMC             : No warppoints
Format settings, Matrix          : Default (H.263)
Codec ID                         : XVID
Codec ID/Hint                    : XviD
Duration                         : 1h 34mn
Bit rate                         : 900 Kbps
Width                            : 576 pixels
Height                           : 304 pixels
Display aspect ratio             : 1.895
Frame rate                       : 25.000 fps
Color space                      : YUV
Chroma subsampling               : 4:2:0
Bit depth                        : 8 bits
Scan type                        : Progressive
Bits/(Pixel*Frame)               : 0.206
Stream size                      : 608 MiB (87%)
Audio
ID                               : 1
Format                           : MPEG Audio
Format version                   : Version 1
Format profile                   : Layer 3
Mode                             : Joint stereo
Mode extension                   : MS Stereo
Codec ID                         : 55
Codec ID/Hint                    : MP3
Duration                         : 1h 34mn
Bit rate mode                    : Constant
Bit rate                         : 128 Kbps
Channel(s)                       : 2 channels
Sampling rate                    : 48.0 KHz
Stream size                      : 86.5 MiB (12%)
Alignment                        : Split accross interleaves
Interleave, duration             : 40 ms (1.00 video frame)
Interleave, preload duration     : 500 ms

Screen : 
http://img30.imageshack.us/img30/2144/dangerousminds1995s5.jpg 
http://img194.imageshack.us/img194/8481/dangerousminds1995s1.jpg 
http://img269.imageshack.us/img269/9374/dangerousminds1995s2.jpg 
http://img38.imageshack.us/img38/8940/dangerousminds1995s3.jpg 
http://img864.imageshack.us/img864/5639/dangerousminds1995s4t.jpg